<svg xmlns="http://www.w3.org/2000/svg" width="100" height="100">
<path d="M40.580067771195,91.89279343286917 C33.40382834106761,90.84625968772595 23.192587173883837,86.21815969840712 17.168390159912974,81.28178316205866 C6.8208419750929785,72.80274538327734 0.9886104543558485,58.01690264533953 2.857149120985188,45.0 C4.605129733962464,32.822947487562125 12.208762579426581,20.717307013860832 22.01387578290356,14.500835937851448 C27.765810163202204,10.85409234966413 40.6081813601253,6.996085609256294 46.863768734266884,7.035621528868887 C63.565353222145056,7.141177164530726 79.62583825843981,15.97158879800306 87.47203908984568,29.36295113023072 C90.55846749186982,34.63065736565447 93.00338779219412,43.98163341820681 92.98813112461347,50.46009876074719 C92.94176942948171,70.1467461590122 77.99459571646337,87.4428553015024 57.20077889709964,91.87140245816215 C51.27534219560659,93.13336778585166 49.106017587077446,93.13615972221834 40.580067771195,91.89279343286917 Z" fill="#fffffe"/>
<path d="M0.0,50.0 L0.0,0.0 L50.0,0.0 L100.0,0.0 L100.0,50.0 L100.0,100.0 L50.0,100.0 L0.0,100.0 L0.0,50.0 Z" fill="#deebf4"/>
<path d="M52.25,92.2942669930909 C51.0125,92.05591409850747 48.9875,92.05591409850747 47.75,92.2942669930909 C46.5125,92.53261988767431 47.525,92.72763589233347 50.0,92.72763589233347 C52.475,92.72763589233347 53.4875,92.53261988767431 52.25,92.2942669930909 Z" fill="#deebf4"/>
<path d="M40.72916666666667,91.39583333333334 C40.396875,91.06354166666667 39.534375,91.0280153508772 38.8125,91.31688596491227 C38.01476730310263,91.63611233234239 38.2517236807213,91.87306870996106 39.41666666666667,91.92105263157895 C40.47083333333334,91.96447368421053 41.061458333333334,91.728125 40.72916666666667,91.39583333333334 Z" fill="#deebf4"/>
<path d="M64.0,90.0 C65.82796613446757,88.81867755467752 64.24908524780561,88.81867755467752 61.5,90.0 C60.181259755412796,90.56668211788792 60.010944816559594,90.87815474667569 61.0,90.91440196287256 C61.825,90.94463683132388 63.175,90.53315594803124 64.0,90.0 Z" fill="#deebf4"/>
<path d="M22.0,84.62244471544217 C22.0,84.41478930893537 21.2125,83.62728930893536 20.25,82.87244471544217 C18.663944375634177,81.62857405255177 18.628574052551766,81.66394437563417 19.872444715442175,83.25 C21.17881446834027,84.91574802019265 22.0,85.44547890498053 22.0,84.62244471544217 Z" fill="#deebf4"/>
<path d="M76.5,83.0 C77.4954863183233,81.9 78.08497512422419,81.0 77.80997512422418,81.0 C77.53497512422418,81.0 76.4954863183233,81.9 75.5,83.0 C74.5045136816767,84.1 73.91502487577581,85.0 74.19002487577582,85.0 C74.46502487577582,85.0 75.5045136816767,84.1 76.5,83.0 Z" fill="#deebf4"/>
<path d="M18.0,81.69616678367305 C18.0,81.52905851469322 16.3125,79.84155851469322 14.25,77.94616678367305 L10.5,74.5 L13.946166783673045,78.25 C17.153784008467813,81.74041858622986 18.0,82.45978746161578 18.0,81.69616678367305 Z" fill="#deebf4"/>
<path d="M82.0,78.5 C83.29174542938043,77.125 84.12362805341897,76.0 83.84862805341896,76.0 C83.57362805341896,76.0 82.29174542938043,77.125 81.0,78.5 C79.70825457061957,79.875 78.87637194658103,81.0 79.15137194658104,81.0 C79.42637194658104,81.0 80.70825457061957,79.875 82.0,78.5 Z" fill="#deebf4"/>
<path d="M8.0,69.0 C7.411297865663204,67.9 6.704632483024008,67.0 6.429632483024008,67.0 C6.154632483024008,67.0 6.4112978656632045,67.9 7.0,69.0 C7.5887021343367955,70.1 8.295367516975992,71.0 8.570367516975992,71.0 C8.845367516975992,71.0 8.588702134336796,70.1 8.0,69.0 Z" fill="#deebf4"/>
<path d="M90.96937445096587,63.5 C90.96937445096587,62.95 90.53315594803124,63.175 90.0,64.0 C89.46684405196876,64.825 89.03062554903413,65.95 89.03062554903413,66.5 C89.03062554903413,67.05 89.46684405196876,66.825 90.0,66.0 C90.53315594803124,65.175 90.96937445096587,64.05 90.96937445096587,63.5 Z" fill="#deebf4"/>
<path d="M4.683114035087719,60.8125 C4.363887667657608,60.01476730310262 4.126931290038939,60.25172368072129 4.078947368421053,61.41666666666667 C4.035526315789474,62.47083333333334 4.271875,63.061458333333334 4.604166666666667,62.72916666666667 C4.936458333333334,62.396875 4.971984649122808,61.534375 4.683114035087719,60.8125 Z" fill="#deebf4"/>
<path d="M3.6831140350877196,56.8125 C3.363887667657609,56.01476730310262 3.12693129003894,56.25172368072129 3.0789473684210527,57.41666666666667 C3.0355263157894736,58.47083333333334 3.271875,59.061458333333334 3.604166666666667,58.72916666666667 C3.936458333333334,58.396875 3.9719846491228075,57.534375 3.6831140350877196,56.8125 Z" fill="#deebf4"/>
<path d="M92.71758122726533,50.26374974414486 C92.48772685256705,48.74368738486519 92.29352166555348,49.75 92.28601414501296,52.5 C92.27850662447241,55.25 92.4665692946801,56.49368738486519 92.7039311899189,55.26374974414486 C92.94129308515772,54.03381210342453 92.9474356019636,51.78381210342453 92.71758122726533,50.26374974414486 Z" fill="#deebf4"/>
<path d="M2.6893255136857475,49.25 C2.4377979666813285,48.2875 2.232002700950441,49.075 2.2320027009504413,51.0 C2.2320027009504413,52.925 2.437797966681329,53.7125 2.6893255136857475,52.75 C2.940853060690166,51.7875 2.9408530606901655,50.2125 2.6893255136857475,49.25 Z" fill="#deebf4"/>
<path d="M92.68311403508773,44.8125 C92.36388766765761,44.01476730310263 92.12693129003894,44.2517236807213 92.07894736842105,45.41666666666667 C92.03552631578947,46.47083333333334 92.271875,47.061458333333334 92.60416666666666,46.72916666666667 C92.93645833333333,46.396875 92.9719846491228,45.534375 92.68311403508773,44.8125 Z" fill="#deebf4"/>
<path d="M3.6831140350877196,40.8125 C3.363887667657609,40.01476730310262 3.12693129003894,40.25172368072129 3.0789473684210527,41.41666666666667 C3.0355263157894736,42.47083333333334 3.271875,43.061458333333334 3.604166666666667,42.72916666666667 C3.936458333333334,42.396875 3.9719846491228075,41.534375 3.6831140350877196,40.8125 Z" fill="#deebf4"/>
<path d="M8.398503666659607,30.25 C9.307574810851575,28.4625 9.826360292463185,27.0 9.551360292463187,27.0 C8.975379250322117,27.0 6.0,32.543820657840065 6.0,33.61700673978247 C6.0,34.66113498237861 6.542269238340081,33.89990029858487 8.398503666659607,30.25 Z" fill="#deebf4"/>
<path d="M86.0,26.622444715442175 C86.0,26.414789308935372 85.2125,25.62728930893537 84.25,24.872444715442175 C82.66394437563417,23.628574052551766 82.62857405255177,23.663944375634177 83.87244471544217,25.25 C85.17881446834026,26.91574802019265 86.0,27.445478904980543 86.0,26.622444715442175 Z" fill="#deebf4"/>
<path d="M17.5,19.0 C19.648242542034286,16.8 21.180895530971426,15.0 20.905895530971428,15.0 C20.63089553097143,15.0 18.648242542034286,16.8 16.5,19.0 C14.351757457965714,21.2 12.81910446902857,23.0 13.09410446902857,23.0 C13.36910446902857,23.0 15.351757457965714,21.2 17.5,19.0 Z" fill="#deebf4"/>
<path d="M75.50332347126424,16.00537748946617 C75.16523268664713,15.45833510867256 73.9011750391784,14.52813336435122 72.6943064768893,13.938262502085408 C70.80389728955741,13.014303313645188 70.84623387019784,13.148972592978257 73.0,14.910649167030428 C75.79972669485134,17.200690255438275 76.40589906618087,17.46577547945742 75.50332347126424,16.00537748946617 Z" fill="#deebf4"/>
<path d="M26.526461402745966,12.193128069412634 C26.21857429790235,11.88524096456902 25.411666666666665,12.192493876871943 24.733333333333334,12.875912318974684 C23.75306606182102,13.863528139428617 23.867929615297555,13.97839169290515 25.29312806941263,13.435707055053983 C26.27934850758958,13.060175717794856 26.83434850758958,12.501015174256247 26.526461402745966,12.193128069412634 Z" fill="#deebf4"/>
<path d="M44.75,7.3106744863142525 C43.7875,7.0591469393098345 42.2125,7.0591469393098345 41.25,7.3106744863142525 C40.2875,7.562202033318671 41.075,7.767997299049559 43.0,7.767997299049559 C44.925,7.767997299049559 45.7125,7.562202033318671 44.75,7.3106744863142525 Z" fill="#deebf4"/>
<path d="M53.269031889370325,7.344063261369056 C52.59199942852401,7.070140160385196 51.24199942852401,7.053465868460821 50.269031889370325,7.307009279314888 C49.296064350216646,7.560552690168957 49.85,7.784671590973934 51.5,7.805051281103727 C53.15,7.825430971233519 53.946064350216645,7.617986362352918 53.269031889370325,7.344063261369056 Z" fill="#deebf4"/>
<path d="M0.0,50.0 L0.0,0.0 L50.0,0.0 L100.0,0.0 L100.0,50.0 L100.0,100.0 L50.0,100.0 L0.0,100.0 L0.0,50.0 Z" fill="#71aada"/>
<path d="M63.339856991054695,89.30731925877177 C78.97596110036172,83.89034651124227 90.50436861927805,70.40946262320574 91.57555757674683,56.2895585256865 L92.01477523137837,50.5 L90.40611406270297,54.80382065895864 C87.21846149619802,63.33208331392353 83.08227900836908,58.04282672790067 82.72349780887393,44.97946480956745 C82.54232233504511,38.38279589636452 82.81375904811003,36.612108722564734 84.15691377123241,35.62873538682706 C85.23030159257863,34.84286839455408 85.77649529226188,33.09862738779368 85.70782314028801,30.67598744988737 C85.62293097092883,27.68113212653448 84.69544262392694,25.98204143560809 81.0509093690556,22.14486265168903 C78.54790921607503,19.509557000320427 77.36559611446447,18.398515873080783 78.42354692103214,19.675882368934268 C80.50096832044805,22.18415447091616 81.21252294831045,26.799916661341662 79.80581475969512,28.64247379693019 C78.79235843342647,29.96993545577768 79.64171524548307,35.86336699370318 81.09966105727536,37.62008422772681 C81.76658755056926,38.42368149116423 81.74965351830423,39.03668864590203 81.04855830550015,39.469989316764796 C79.52623848875021,40.41083470526378 77.86557500596986,39.090704390738274 78.14447134571475,37.161410082390205 C78.27656558029261,36.24763453707559 77.3997802052128,33.925 76.19605940109298,32.0 C74.99233859697314,30.075 74.0057939936782,27.55724440295044 74.00373806043754,26.40498756211209 C73.99701223309407,22.63546800108983 67.75077964593376,18.779011928683467 65.861803398875,21.37811529493745 C65.00150322714919,22.56183005884884 63.0,21.228978277759445 63.0,19.4723678019638 C63.0,18.582578197053778 63.645336416906396,18.269904951792974 64.75,18.624471782350547 C65.89828502686927,18.99303990461412 65.64040718124181,18.47217447054828 64.0,17.10961084267241 C62.625,15.967501121529258 60.712500000000006,14.770287526073268 59.75000000000001,14.449136186103544 C58.78750000000001,14.12798484613382 58.000000000000014,13.405995086712215 58.00000000000001,12.844714498499975 C58.0,12.194670493645537 56.4571626798764,12.092913717369846 53.75,12.564408666166955 C51.4125,12.971521046596033 47.608123364996004,13.216408075341947 45.29582969999112,13.108602063380097 C41.12344918055726,12.914073266715974 33.0,16.08840190385946 33.0,17.913335061222732 C33.000000000000014,19.297480232685384 30.45450046256841,19.90427916063212 28.909316220535082,18.888476677022425 C27.706086470342953,18.097474714052705 27.71934729836364,17.776685954753106 29.0,16.694772252399524 C29.825,15.99780046348188 31.83579157082034,13.96663410338111 33.46842571293409,12.181069229953366 L36.436851425868184,8.934587641902922 L32.34619047425986,10.377856886642114 C10.96011717198516,17.923303020664907 -0.9670601573259114,39.107238478645044 4.462258934246059,59.90268491169073 C10.809027202874809,84.21215674916371 38.34780649884078,97.96556657375493 63.339856991054695,89.30731925877177 Z" fill="#71aada"/>
<path d="M50.71025097907092,89.0 C50.997907440939,87.9 50.7653049910141,87.0 50.19335664590447,87.0 C49.62140830079485,87.0 47.775135149881294,85.84022404180119 46.09052742165214,84.42272009289155 L43.027604279417304,81.8454401857831 L45.34796406200046,77.67272009289155 C46.975399975246816,74.74609009953058 48.38976018435378,73.43962065925359 50.0841619222918,73.2978106972979 C54.40704330447704,72.93601477215168 66.0,75.37568109158593 66.0,76.64720077297628 C66.0,77.53994985912964 66.85667740270357,77.61469683288674 69.24339811320566,76.93019433961697 C71.02726707546877,76.41858745282764 73.26209067579823,76.0 74.20967278060445,76.0 C75.78040870541389,76.0 75.75315003827522,76.30405916283797 73.90098917187997,79.44323804143036 C70.8385267750754,84.6337252431402 59.8563507425893,90.766946357656 53.34361961510993,90.92392207449663 C50.66384501717657,90.98851241766418 50.266212736500044,90.6980048480606 50.71025097907092,89.0 Z" fill="#71aada"/>
<path d="M39.60161313025294,72.25 C39.19916701855873,71.8375 36.32716331865892,70.14757475975227 33.21938268603114,68.49461057722726 C27.78199016099051,65.60257405577507 27.46417066915631,65.20655034755039 24.792855195495406,57.99461057722726 C21.525765344008384,49.17421648095541 21.337162509611304,46.11963454958558 23.85991507581428,42.88485869180126 C26.93731773875759,38.93888794059394 28.169496259961665,28.340822427122085 25.7264181611441,26.830917124882355 C21.288909082710347,24.088385689024072 37.199682744892804,21.592823680863187 42.93545959993108,24.131725311628173 C46.382855616493494,25.657691120541184 46.75094337954263,26.497858379011323 44.37203328685287,27.410731834782506 C43.13330188881191,27.88607767302028 42.87912221164163,28.867691618465873 43.30893331228137,31.516306962030548 C43.75941889404955,34.292324198788556 43.48159273823041,35.20707562980533 41.9369000254285,36.03377008155168 C39.970372473416404,37.08622368800771 39.201322525640094,41.0 40.96104485258046,41.0 C41.489619521499705,41.0 42.82349989007951,41.96755025769503 43.92522344942447,43.15011168376674 L45.928357193688036,45.300223367533484 L46.597479857616904,41.11576010466798 C47.214196195062016,37.259028003418535 47.39939095644156,37.051468723775486 48.96204193235697,38.46564842090123 C49.894533608303114,39.30954178940556 51.12944791900634,40.0 51.7062959561419,40.0 C52.28314399327746,39.99999999999999 53.31531081301361,40.675 54.0,41.5 C55.79029503992323,43.65717355554794 56.87263821605691,43.35563111293896 57.589356001659695,40.5 C58.27521362236042,37.76732557770691 60.0,37.07481826358243 60.0,39.53211863089645 C60.0,42.03526945337802 57.06126269155447,48.40468397156891 55.29041410520897,49.73966752842493 C54.385987295278184,50.421484669058636 53.8381513357254,51.132962310846025 54.07300086175832,51.32072895461913 C63.00929460464344,58.46546504251232 64.41830530081467,59.13014407544618 69.2259914725237,58.46891822854598 C74.48933643389383,57.74502328089122 75.06351038788529,58.46505234156181 72.12082510426,62.09911483737317 C70.98965228336709,63.496054138888894 68.89989954036828,64.55127916745823 66.87082510426,64.75011334355972 C50.80439620953797,66.32450366425292 52.0,66.40220427178882 52.0,63.78367935064425 C52.0,62.462898306405286 51.358426528951256,60.508750934412575 50.57428117544724,59.441129635104886 C49.183425736707015,57.5474668288132 49.07949964191778,57.56594910545152 46.32428117544724,60.19695208635902 C44.77092652895126,61.68027573385648 41.8125,63.598814743245 39.75,64.46037210722238 C37.6875,65.32192947119978 36.0,66.27235867980694 36.0,66.57243701523831 C36.0,66.87251535066969 36.52088558945329,66.79610899021773 37.15752353211843,66.40264510312286 C37.95060798262185,65.91249195676272 38.1375054247528,66.36617648983805 37.75114314722837,67.84362810874792 C37.31923867078464,69.49523336385943 37.633487494718715,70.0 39.09361961510993,70.0 C40.14212882679947,70.0 41.0,70.675 41.0,71.5 C41.0,73.17775603090871 40.67619249008271,73.35142444677557 39.60161313025294,72.25 Z" fill="#71aada"/>
<path d="M34.72916666666667,66.39583333333334 C34.396875,66.06354166666667 33.534375,66.0280153508772 32.8125,66.31688596491227 C32.01476730310263,66.63611233234239 32.2517236807213,66.87306870996106 33.41666666666667,66.92105263157895 C34.47083333333334,66.96447368421053 35.061458333333334,66.728125 34.72916666666667,66.39583333333334 Z" fill="#71aada"/>
<path d="M55.0200559771454,46.4758340259209 C56.67146273157964,44.486010616550594 56.05227052239346,44.0243145387398 53.18575533150414,45.1081013557514 C51.912920763831416,45.58934120023741 51.15197841130014,46.4368892406649 51.49477232587908,46.99154144559026 C52.37551466699557,48.416612488847875 53.552214146283404,48.24447523346083 55.0200559771454,46.4758340259209 Z" fill="#71aada"/>
<path d="M47.75524902409705,33.5 C47.49240111947433,32.125 47.4720842579406,31.0 47.710100442910985,31.0 C48.82551684838895,31.0 50.61579089094058,33.65262732717825 50.24702380952381,34.75892857142857 C49.56149092678196,36.81552721965414 48.26371058811524,36.15984486933051 47.75524902409705,33.5 Z" fill="#71aada"/>
<path d="M55.2,34.8 C54.54,34.14 54.0,32.9548571386241 54.0,32.16634919694244 C54.0,31.377841255260783 52.79527661732588,29.69751046938647 51.32283692739085,28.432280783888405 C49.056450830693194,26.484833300678766 48.84508231163243,25.891590682331287 49.945281642833024,24.565931586945965 C51.63164464097382,22.53398848062988 52.94440308016507,22.617568848793173 55.980176514405755,24.95015972834231 C57.92318085902419,26.443101909752134 58.49368567469404,27.84609665870828 58.61425311919328,31.427923882753497 C58.77109180708132,36.087300088279946 57.62209907067879,37.2220990706788 55.2,34.8 Z" fill="#71aada"/>
<path d="M67.2320729051695,24.0 C65.77990383368173,21.67470770723321 66.0079936373208,21.59088923553895 69.4813245454909,23.173444704937896 C71.34544607971469,24.022795316096463 71.70367959655327,24.57094675865834 70.77837756661674,25.158131930420836 C68.93702810612224,26.32662942016413 68.62052691964784,26.223268269596065 67.2320729051695,24.0 Z" fill="#71aada"/>
<path d="M41.25,8.337719298245615 C40.5625,8.06030701754386 39.4375,8.06030701754386 38.75,8.337719298245615 C38.0625,8.61513157894737 38.625,8.842105263157896 40.0,8.842105263157896 C41.375,8.842105263157896 41.9375,8.61513157894737 41.25,8.337719298245615 Z" fill="#71aada"/>
<path d="M56.72916666666667,8.395833333333334 C56.396875,8.063541666666667 55.534375,8.028015350877194 54.8125,8.31688596491228 C54.01476730310262,8.636112332342393 54.2517236807213,8.87306870996106 55.41666666666667,8.921052631578949 C56.47083333333334,8.964473684210526 57.061458333333334,8.728125 56.72916666666667,8.395833333333334 Z" fill="#71aada"/>
<path d="M48.72916666666667,7.395833333333334 C48.396875,7.063541666666667 47.534375,7.028015350877193 46.8125,7.316885964912281 C46.01476730310262,7.636112332342392 46.2517236807213,7.873068709961061 47.41666666666667,7.921052631578947 C48.47083333333334,7.964473684210526 49.061458333333334,7.728125 48.72916666666667,7.395833333333334 Z" fill="#71aada"/>
<path d="M0.0,50.0 L0.0,0.0 L50.0,0.0 L100.0,0.0 L100.0,50.0 L100.0,100.0 L50.0,100.0 L0.0,100.0 L0.0,50.0 Z" fill="#0a150e"/>
<path d="M59.5,89.67392207449663 C65.59274431005667,87.2897863945502 71.92605198354057,82.7905072882144 73.90098917187997,79.44323804143036 C75.75315003827522,76.30405916283797 75.78040870541389,76.0 74.20967278060445,76.0 C73.26209067579823,76.0 71.02726707546877,76.41858745282764 69.24339811320566,76.93019433961697 C66.85667740270355,77.61469683288674 66.0,77.53994985912964 66.0,76.64720077297628 C66.0,75.37568109158593 54.40704330447704,72.93601477215168 50.0841619222918,73.2978106972979 C48.38976018435378,73.43962065925359 46.975399975246816,74.74609009953058 45.34796406200046,77.67272009289155 L43.027604279417304,81.8454401857831 L46.09052742165214,84.42272009289155 C47.775135149881294,85.84022404180119 49.62140830079485,87.0 50.19335664590447,87.0 C50.7653049910141,87.0 50.997907440939,87.9 50.71025097907092,89.0 C50.266212736500044,90.6980048480606 50.66384501717657,90.98851241766418 53.34361961510993,90.92392207449663 C55.07962882679947,90.88207921546977 57.85,90.31957921546977 59.5,89.67392207449663 Z" fill="#0a150e"/>
<path d="M41.0,71.5 C41.0,70.675 40.14212882679947,70.0 39.09361961510993,70.0 C37.73569217979168,70.0 37.325495502294714,69.47130720340961 37.667807427322806,68.16230439121628 C38.07309720055354,66.61247391753736 37.62765947910625,66.37099099466485 34.82418781221287,66.62070711929414 C32.995884515495796,66.78356120456803 32.4,66.68120107681621 33.5,66.39324016873454 C39.818991874982125,64.73903777011594 42.53438621901556,63.46969969911527 45.70006103518261,60.690200396807235 C49.09418206947874,57.71012265837496 49.28136227119525,57.66430063660018 50.61429069756669,59.487188878863385 C51.37643081390501,60.529477594103895 52.0,62.462898306405286 52.0,63.78367935064425 C52.0,66.4022042717888 50.80439620953807,66.32450366425292 66.87082510426,64.75011334355972 C68.89989954036828,64.55127916745823 70.98965228336709,63.496054138888894 72.12082510426,62.09911483737317 C75.06351038788526,58.46505234156185 74.48933643389377,57.745023280891225 69.2259914725237,58.46891822854598 C64.41830530081475,59.13014407544617 63.00929460464331,58.465465042512214 54.07300086175832,51.32072895461913 C53.8381513357254,51.132962310846025 54.385987295278184,50.421484669058636 55.29041410520897,49.73966752842493 C57.06126269155442,48.40468397156894 60.0,42.03526945337795 60.0,39.53211863089645 C60.0,37.074818263582316 58.275213622360454,37.767325577706785 57.589356001659695,40.5 C56.872638216056906,43.35563111293898 55.790295039923244,43.65717355554796 54.0,41.5 C53.31531081301361,40.675 52.28314399327746,39.99999999999999 51.7062959561419,40.0 C51.12944791900634,40.0 49.894533608303114,39.30954178940556 48.96204193235697,38.46564842090123 C47.39939095644156,37.051468723775486 47.214196195062016,37.259028003418535 46.597479857616904,41.11576010466798 L45.928357193688036,45.300223367533484 L43.92522344942447,43.15011168376674 C42.82349989007951,41.96755025769503 41.489619521499705,41.0 40.96104485258046,41.0 C39.20132252564013,41.0 39.97037247341644,37.08622368800769 41.9369000254285,36.03377008155168 C43.48159273823041,35.20707562980533 43.75941889404955,34.292324198788556 43.30893331228137,31.516306962030548 C42.87912221164163,28.867691618465873 43.13330188881191,27.88607767302028 44.37203328685287,27.410731834782506 C46.75094337954265,26.49785837901132 46.38285561649351,25.65769112054119 42.93545959993108,24.131725311628173 C37.199682744892854,21.592823680863212 21.28890908271041,24.08838568902411 25.7264181611441,26.830917124882355 C28.169496259961676,28.34082242712209 26.937317738757603,38.93888794059392 23.85991507581428,42.88485869180126 C21.33716250961129,46.1196345495856 21.525765344008366,49.17421648095535 24.792855195495406,57.99461057722726 C27.46417066915631,65.20655034755039 27.78199016099051,65.60257405577507 33.21938268603114,68.49461057722726 C36.32716331865892,70.14757475975227 39.19916701855873,71.8375 39.60161313025294,72.25 C40.676192490082705,73.35142444677557 41.0,73.17775603090871 41.0,71.5 Z" fill="#0a150e"/>
<path d="M90.53932801267634,53.88159444034568 C92.53489053061203,47.87351824524356 92.04839108756774,42.108580157764 88.88263029686874,34.25 C86.70830624533217,28.852529698972756 84.46079519320831,27.003455582943516 85.60218328676517,31.551107974683386 C86.02779683274095,33.24688741310561 85.73912044343473,34.50417720358476 84.74117537268214,35.30110797468339 C82.45516593678815,37.12665059809839 81.9335454590295,41.034012579961455 82.9234306794096,48.9174953867451 C84.3396430049649,60.19626315638929 87.71186110809293,62.39430023091116 90.53932801267634,53.88159444034568 Z" fill="#0a150e"/>
<path d="M51.49477232587908,46.99154144559026 C51.15197841130014,46.4368892406649 51.912920763831416,45.58934120023741 53.18575533150414,45.1081013557514 C56.05227052239346,44.0243145387398 56.67146273157964,44.486010616550594 55.0200559771454,46.4758340259209 C53.5522141462834,48.24447523346083 52.37551466699557,48.416612488847875 51.49477232587908,46.99154144559026 Z" fill="#0a150e"/>
<path d="M81.32465739237088,39.342009274295776 C81.6865522915082,38.98011437515846 81.55954852980705,38.17421473256009 81.04242681081274,37.55112117963273 C79.63124038575923,35.85074555986659 78.81145181329775,29.944926257985937 79.80581475969518,28.642473796930194 C80.2855393597678,28.014113208618586 80.59985383030866,26.177055577677514 80.50429136089711,24.560123505950035 C80.27122425220992,20.616591225739246 73.51360411618151,14.846995612105498 65.0,11.322698254505644 C59.375431937916076,8.99434822925997 57.05195470429682,8.62306793612491 47.74839954494219,8.565976914040633 L36.996799089884384,8.5 L32.308299736132255,13.323494862525655 C28.755896881468615,16.97818170926238 27.946784927131272,18.349077287503427 28.969216411725075,18.98097469615041 C30.48297531278971,19.916529147781038 33.000000000000014,19.24984108098085 33.0,17.91333506122282 C33.0,16.088401903859474 41.123449180557124,12.914073266715981 45.2958296999911,13.108602063380097 C47.608123364996,13.21640807534194 51.4125,12.971521046596024 53.75,12.564408666166948 C56.457162679876404,12.09291371736984 58.0,12.194670493645534 58.0,12.844714498499975 C58.0,13.405995086712217 58.7875,14.127984846133824 59.75,14.449136186103546 C60.7125,14.770287526073268 62.625,15.967501121529267 64.0,17.10961084267243 C65.64040718124178,18.472174470548282 65.89828502686925,18.993039904614136 64.75,18.624471782350547 C63.64533641690637,18.269904951792938 63.0,18.58257819705372 63.0,19.472367801963777 C63.0,21.22897827775948 65.00150322714916,22.561830058848876 65.861803398875,21.37811529493745 C67.78405419732796,18.733228399814905 74.0,22.65711203019946 74.0,26.515440721790185 C74.0,27.728446800451486 75.08660060107574,30.3221017964253 76.41466800239056,32.27911849062088 C77.74273540370535,34.23613518481646 78.58714303494104,36.079523631725635 78.29112940513652,36.375537261530155 C77.54472779420915,37.121938872457505 78.74441727314803,40.0 79.80194853699462,40.0 C80.27754350831425,40.0 80.96276249323357,39.7039041734331 81.32465739237088,39.342009274295776 Z" fill="#0a150e"/>
<path d="M50.24702380952381,34.75892857142857 C50.61579089094058,33.65262732717825 48.82551684838895,31.0 47.710100442910985,31.0 C47.4720842579406,31.0 47.49240111947433,32.125 47.75524902409705,33.5 C48.26371058811524,36.15984486933051 49.56149092678196,36.815527219654136 50.24702380952381,34.75892857142857 Z" fill="#0a150e"/>
<path d="M58.61425311919328,31.427923882753497 C58.49368567469404,27.84609665870828 57.92318085902419,26.443101909752134 55.980176514405755,24.95015972834231 C52.94440308016506,22.61756884879317 51.631644640973825,22.533988480629876 49.945281642833024,24.565931586945965 C48.84508231163243,25.891590682331287 49.056450830693194,26.484833300678766 51.32283692739085,28.432280783888405 C52.79527661732588,29.69751046938647 54.0,31.377841255260783 54.0,32.16634919694244 C54.0,33.904121863175526 55.959434539704866,36.0 57.584076604787526,36.0 C58.34596594722674,36.0 58.71327951511075,34.369807923419984 58.61425311919328,31.427923882753497 Z" fill="#0a150e"/>
<path d="M70.77837756661674,25.158131930420836 C71.70367959655327,24.57094675865834 71.34544607971469,24.022795316096463 69.4813245454909,23.173444704937896 C66.0079936373208,21.59088923553895 65.77990383368173,21.674707707233207 67.2320729051695,24.0 C68.62052691964783,26.223268269596062 68.93702810612224,26.32662942016413 70.77837756661674,25.158131930420836 Z" fill="#0a150e"/>
</svg>
