<svg xmlns="http://www.w3.org/2000/svg" width="100" height="100">
<path d="M50.47522047838365,90.95990589179979 C50.21028044969193,90.5312239203962 50.26811624674648,89.46487519734887 50.603744471838226,88.59024206280571 C50.97480762743699,87.62326697956858 50.68213007831394,86.98761445721469 49.856988804184326,86.96839875726849 C46.518973752764644,86.89066383155938 40.935675029101326,79.0 44.21868617707757,79.0 C44.70563024113691,79.0 45.587584012868774,77.61290192800294 46.178583447592835,75.91755984000653 C47.24039636510136,72.8716413113857 47.31975595091157,72.84125102528753 52.87656393718193,73.35260765079805 C62.4982318627909,74.2380266997158 66.0,75.12279624787845 66.0,76.66842301625941 C66.0,77.54638767670669 66.47624931510208,77.82369572489795 67.20769821875608,77.37163544140593 C67.87193223907192,76.96111624036675 69.33443223907192,76.5247772300146 70.45769821875608,76.40199319617894 C71.58096419844024,76.27920916234326 73.11875,76.02603086117932 73.87500000000001,75.83937474914795 C79.5074638044976,74.44918130133976 71.08772095153019,84.32684730652836 63.515762044708474,87.99236972506694 C58.1684723236521,90.5809482675752 51.21846901733636,92.16250728991398 50.47522047838365,90.95990589179979 Z" fill="black"/>
<path d="M36.028219532206336,70.45096285715188 C34.118740274919816,69.10293328571835 32.059681586939085,68.0 31.452533558915814,68.0 C29.530939390730868,68.0 26.400318007359168,63.6619762939129 24.95750394190163,59.0 C24.1915273287923,56.525 22.990507206573845,53.375 22.28857033697173,52.0 C20.48122431709371,48.45965202149742 20.680936906526536,46.6752645811154 23.25,43.409840409207625 C24.4875,41.83690807329043 25.610450953397514,39.638721661979865 25.745446563105588,38.52498171740636 C25.88044217281366,37.41124177283287 26.2677336410675,34.561017579880435 26.60609427033635,32.19115017751207 C27.09649882857092,28.756371790191103 26.86383699096993,27.620920374139338 25.45915721540876,26.593793444805453 C24.010090113385704,25.534209709925324 23.942891908008516,25.153328730633287 25.080928353893317,24.449983526640363 C27.888247590898942,22.7149648208995 41.83982564494408,22.159574322222298 42.87496068488909,23.741630933728864 C43.21873230820009,24.267036942143378 44.5125,24.615312337489595 45.75,24.515576256720458 C48.50209083131162,24.29377201151989 48.63419716737786,25.299774168228765 46.09306230627647,27.128027939784243 C43.72696337552996,28.830349748921034 42.32569378244577,33.00000000000001 44.11970353420894,33.0 C44.809666915636626,33.0 44.105057229927844,34.32468124715593 42.55390423263387,35.94373610479095 L39.733626055735726,38.8874722095819 L42.86681302786786,42.02065918171401 C46.14775217213014,45.30159832597626 46.05925756294893,45.35623764868194 46.39805971387115,39.840357703294856 C46.56884116021422,37.059944555491995 48.08421753321082,36.394689142249895 49.581761043003674,38.442701925434676 C50.361792469351656,39.50945846506102 51.0,40.038589867347845 51.0,39.618549486072055 C51.00000000000001,39.19850910479626 52.22673663086434,39.819790876406046 53.72608140192074,40.999175645204915 L56.452162803841475,43.143511588475576 L57.30941473525407,40.57175579423779 C57.780903297531005,39.15729010740701 58.80416666666667,38.00000000000001 59.583333333333336,38.0 C61.37697218337922,38.0 61.38803486882778,37.88785866533828 58.952136318877635,44.39838093243331 C57.73308247476719,47.65659429153699 56.21538531677506,50.00689501724797 55.202136318877635,50.20561834801654 C53.99543101220269,50.442283272725234 55.17509896518771,51.80681855760924 59.2550833842308,54.893708131626795 C65.07003133013403,59.29325978282487 66.69080871705434,59.61371726656911 72.25,57.463042028904596 C74.80185741483002,56.47580912526947 74.55615950057113,60.44384049942887 71.90102681952968,63.098973180470324 C70.42707622017564,64.57292377982436 68.92508865567576,65.06923523085051 66.85699847473836,64.7657040416236 C65.23721813436181,64.52797076599921 63.68019841810474,64.70843283478757 63.39695466083374,65.16673086115327 C63.11371090356274,65.62502888751897 60.43352365871883,66.0 57.44098300562506,66.0 C52.47457199886439,66.0 51.997226054603814,65.80375108756249 51.96819662812953,63.75 C51.95070477360078,62.5125 51.33238579857234,60.70400758473977 50.59415446139967,59.73112796608838 C49.33729841714982,58.07477775788328 49.049931787351184,58.15093712619288 46.07667714765594,60.9283728194965 C44.33029596226957,62.55973710752236 42.81111493729801,63.93093893870919 42.70071931438581,63.97548799991168 C42.590323691473614,64.02003706111417 41.58337993151166,64.29618782553314 40.463066514470356,64.58915636528718 C38.0166962256778,65.22889656682649 37.177373072834776,70.0 39.51120152083995,70.0 C40.33004068437798,70.0 41.0,70.675 41.0,71.5 C41.0,73.52343565402028 40.116225694357546,73.33696079284742 36.028219532206336,70.45096285715188 Z" fill="black"/>
<path d="M35.25,66.33771929824562 C34.5625,66.06030701754385 33.4375,66.06030701754385 32.75,66.33771929824562 C32.0625,66.61513157894737 32.625,66.84210526315789 34.0,66.84210526315789 C35.375,66.84210526315789 35.9375,66.61513157894737 35.25,66.33771929824562 Z" fill="black"/>
<path d="M84.14488338328546,56.25 C83.54111686617685,54.7375 82.92402271157502,50.32933629610238 82.77356303972581,46.4540806580053 C82.52872308084348,40.1479561036384 82.29000759114045,39.412982672629965 80.5,39.4540806580053 C79.07299920413905,39.486844126791226 78.49250887368987,38.84029619251684 78.47385292595169,37.19736571109421 C78.45947203522513,35.93091685219602 77.94993224555367,34.58091685219602 77.34154228223733,34.19736571109421 C76.733152318921,33.813814569992395 75.47597230949862,31.25415114535658 74.54780892796538,28.50922476745907 C73.0159753424513,23.97901974204535 69.0,18.49228698286107 69.0,20.929660056241765 C69.0,21.483823749336217 68.2125,21.71974965127838 67.25,21.45393983833546 C66.2875,21.188130025392542 66.98307208114699,21.66193803349546 68.79571573588218,22.506846523008615 C70.60835939061738,23.35175501252177 71.81930174314866,24.48335892691839 71.48669874150724,25.021521888334444 C70.5364499056449,26.55905680252973 69.4367614905794,26.20279206023126 66.1028277212513,23.277315624703444 C62.86494542683378,20.43612290501717 61.89892651669462,17.640248052728616 64.5,18.638373600523042 C67.42984839417612,19.762661919235 65.93244204544696,18.25730967290204 61.25,15.371127669093468 C57.61580667484064,13.131069325256572 55.79527999483749,12.591781774726932 53.5,13.07537525716096 C51.85,13.423014433126784 48.60367430039206,13.48932216942842 46.285942889760136,13.222725782275706 C41.60142824660311,12.6838908363019 35.53645273590203,14.933131896602827 32.95890429100865,18.16515669162362 C31.270793421786824,20.281903011902674 28.0,19.77261139017694 28.0,17.393011195815813 C28.0,16.626855038117114 27.523442352531273,16.0 26.940983005625053,16.0 C26.358523658718834,16.0 26.18977365871883,15.501956764398459 26.565983005625053,14.893237254218796 C27.04266092847378,14.12195617336286 27.50383504494419,14.197188238693146 28.08740842105487,15.14142979616975 C28.725289214334964,16.17354260046768 29.82337571188787,15.543743752355024 32.69602774035744,12.498192541950953 L36.467238638605124,8.5 L47.48361931930256,8.51949311294263 C56.96974269399861,8.536278487349188 59.334997845630205,8.888727681392535 64.5111813215654,11.056788296542944 C72.8623541156145,14.554703103711207 82.38920849181267,21.826106169735343 80.92788584458197,23.586892241546472 C80.32284974344451,24.315916144546005 80.13030111338261,25.40181463585009 80.5,25.999999999999996 C80.86969888661737,26.598185364149902 80.6283392182846,27.742897558574867 79.96364518148272,28.543804876499916 C79.0055154134741,29.698280620576217 79.03947710843036,30.003172762186875 80.12755528455783,30.015312774517064 C81.03069668036828,30.02538939209988 81.12923328654773,30.281849623804284 80.41571869353332,30.76531277451706 C79.70125098291804,31.249421738564035 79.62573578918371,32.60847081781171 80.19431062785135,34.75 C81.06914343515574,38.04504554012316 83.0,39.249383775859414 83.0,36.5 C83.0,35.675 83.69539087639524,35.0 84.54531305865609,35.0 C85.76978587957998,35.0 85.9543010090935,34.27332469898415 85.43402215939818,31.5 C85.0728899825455,29.574999999999996 85.07739478314926,27.999999999999996 85.44403282740655,28.0 C86.88254096633551,28.000000000000007 91.1747481164385,39.29302254328981 91.71098818120888,44.488688829145275 C92.77234586844087,54.772255304444315 87.08445241355686,63.61393627718464 84.14488338328546,56.25 Z" fill="black"/>
<path d="M55.599526476024295,45.266193142690966 C55.352683466350655,45.01935013301732 54.15735120588465,45.132670996747855 52.943232563877615,45.51801728431438 C51.26454831323551,46.050810968226514 51.05879893874833,46.41830575389899 52.08433360874484,47.052121036598244 C53.37246839047314,47.84823211379726 56.561398511701405,46.22806517836808 55.599526476024295,45.266193142690966 Z" fill="black"/>
<path d="M55.65498756211209,35.17125932841593 C54.74474440295044,34.165451959044695 54.0,32.848113026109495 54.0,32.243839477448816 C54.0,31.63956592878814 52.83836125728452,30.231415129874716 51.41858057174338,29.11461547986343 C48.36839171423552,26.715336574872023 48.54887676979943,23.638579313251167 51.76673365204308,23.179594906437146 C53.19894851012089,22.975308540970595 55.0287644873189,23.881339144331825 56.815724189475475,25.679594906437146 C59.20143335465852,28.080385057340045 59.556782258717035,29.132307575381652 59.20417073202583,32.75 C58.74615718072369,37.44908675551978 58.109472257778535,37.88343438852183 55.65498756211209,35.17125932841593 Z" fill="black"/>
<path d="M48.0,34.08333333333333 C48.0,33.02916666666666 47.4375,31.965773809523807 46.75,31.720238095238095 C46.0625,31.474702380952383 45.834741138391614,30.914961242560764 46.24386919642581,30.476368898812282 C47.17558065795474,29.477558121637127 51.0,32.83759818339188 51.0,34.65498756211209 C51.0,35.394744402950444 50.325,36.0 49.5,36.0 C48.675,36.0 48.0,35.1375 48.0,34.08333333333333 Z" fill="black"/>
</svg>
